<svg id="Layer_1" data-name="Layer 1" xmlns="http://www.w3.org/2000/svg" viewBox="0 0 276.34 396.86"><defs><style>.cls-1{fill:none;}.cls-2{fill:#fff;}.cls-3{fill:red;}</style></defs><title>bike_silhouette</title><path class="cls-1" d="M731.41,593.45c-.61-1.07.7-3.22,1.15-4.88h0C732.11,590.23,730.8,592.38,731.41,593.45Z" transform="translate(-599.17 -386.14)"/><path class="cls-2" d="M875.5,386.14H599.17V783H875.5ZM819.39,554.06c-.74,3.3-2.29,6.45-2.88,9.77s-1.14,7.15-.6,10.57c1.17,7.32-.83,14.36-9.68,15.66-3.81.57-5.3,3.19-5.74,7.29a75.86,75.86,0,0,1-3.93,16.27c-.44,1.26-3.45,2-5.36,2.2-.51.07-2.06-2.64-1.91-3.92.51-4.09,2-8.07,2.33-12.16a102.06,102.06,0,0,0-.5-14.29c0-.63-1.27-1.18-2-1.77-.31.78-1,1.69-.86,2.32,1.53,5.2-.49,9.8-1.92,14.61a20.76,20.76,0,0,0-.86,9.16c1.09,6.18-1.33,10.72-5,15.29-5.66,7.08-11,14.39-16.29,21.8-.76,1.08-.67,4.12.14,4.7,2.84,2,2.07,4.45,1.64,6.94-1.33,7.71-2,15.61-4.36,23-1.2,3.85-4.8,7.39-8.15,10-4.91,3.87-11.83,1.19-13.77-4.74-.62-1.89-.71-4-1.44-5.81-.41-1.05-1.55-2.36-2.49-2.47a3.51,3.51,0,0,0-2.77,2c-1.09,3.59-3,7-1,11.18.73,1.51-.49,4.14-1.21,6.12-.85,2.36-2.87,4.53-3,6.88-.27,4.22-2.48,7-5.35,9.39-4.15,3.44-6.94,7.57-7.63,12.94-.4,3.07-1.87,4.26-5,4.65a7.11,7.11,0,0,0-4.94,3.63c-2,5.17-3.27,10.64-4.84,16-1.08,3.67-2,7.4-3.38,11-.48,1.24-2.24,2.92-3.23,2.8-1.71-.19-3.27-1.64-5.36-2.83-.25.31-.66,1.25-1.36,1.57-1.42.65-3.32,1.69-4.43,1.21a4.88,4.88,0,0,1-2.23-4c.56-4.68,1.69-9.28,2.6-13.92.32-1.64.6-3.29.94-5.14-1.77.55-3.21,1.51-4.44,1.29-5.33-1-10.93-1.51-15.79-3.66-3.5-1.54-6.11-5.26-8.82-8.27-.63-.7-.51-2.72,0-3.72,3.33-6.22,4.15-13.56,9.64-18.9,4.53-4.41,6-10.87,6.13-17a178.35,178.35,0,0,0-1.56-27.73c-1.4-9.76-.62-19.08,4.45-27.3,7.1-11.53,7.19-23.44,5.74-36.36-2-18-1.88-36.1,4.23-53.58.41-1.18,1.41-2.24,1.53-3.42.17-1.63.33-3.71-.49-4.92-4.94-7.31-10.56-14.17-15.14-21.68-2.87-4.69-2.24-10.44-.28-15.45a285.11,285.11,0,0,1,11.59-26.58c5.49-10.71,12.25-20.74,23.08-26.78,3.87-2.16,8.63-2.86,13.06-3.81,2.48-.54,5.15-.18,7.73-.3,8.14-.36,10.93-3.54,10.39-11.84a16.67,16.67,0,0,0-.37-2.55c-2.56-11.61,5.07-19,14.45-21.8,15.79-4.64,29,.21,39.69,12.22,4.39,4.9,3.57,15-1.28,19.58-.94.88-1.76,1.89-2.66,2.81-4.68,4.77-3.64,9.69,1.85,13.48,5.19,3.59,10.67,7.48,14.26,12.49,3.23,4.51,4.24,10.67,5.9,16.2,2.71,9,5.15,18.07,7.71,27.11a6.27,6.27,0,0,0,.79,2C824.4,526.13,822.51,540.05,819.39,554.06Z" transform="translate(-599.17 -386.14)"/><path d="M732.58,588.52h0v0h0Z" transform="translate(-599.17 -386.14)"/><path d="M814.23,511.45c-2.56-9-5-18.11-7.71-27.11-1.66-5.53-2.67-11.69-5.9-16.2-3.59-5-9.07-8.9-14.26-12.49-5.49-3.79-6.53-8.71-1.85-13.48.9-.92,1.72-1.93,2.66-2.81,4.85-4.59,5.67-14.68,1.28-19.58-10.74-12-23.9-16.86-39.69-12.22-9.38,2.76-17,10.19-14.45,21.8a16.67,16.67,0,0,1,.37,2.55c.54,8.3-2.25,11.48-10.39,11.84-2.58.12-5.25-.24-7.73.3-4.43.95-9.19,1.65-13.06,3.81-10.83,6-17.59,16.07-23.08,26.78a285.11,285.11,0,0,0-11.59,26.58c-2,5-2.59,10.76.28,15.45,4.58,7.51,10.2,14.37,15.14,21.68.82,1.21.66,3.29.49,4.92-.12,1.18-1.12,2.24-1.53,3.42-6.11,17.48-6.24,35.6-4.23,53.58,1.45,12.92,1.36,24.83-5.74,36.36-5.07,8.22-5.85,17.54-4.45,27.3a178.35,178.35,0,0,1,1.56,27.73c-.08,6.11-1.6,12.57-6.13,17-5.49,5.34-6.31,12.68-9.64,18.9-.54,1-.66,3,0,3.72,2.71,3,5.32,6.73,8.82,8.27,4.86,2.15,10.46,2.71,15.79,3.66,1.23.22,2.67-.74,4.44-1.29-.34,1.85-.62,3.5-.94,5.14-.91,4.64-2,9.24-2.6,13.92a4.88,4.88,0,0,0,2.23,4c1.11.48,3-.56,4.43-1.21.7-.32,1.11-1.26,1.36-1.57,2.09,1.19,3.65,2.64,5.36,2.83,1,.12,2.75-1.56,3.23-2.8,1.38-3.55,2.3-7.28,3.38-11,1.57-5.34,2.84-10.81,4.84-16a7.11,7.11,0,0,1,4.94-3.63c3.15-.39,4.62-1.58,5-4.65.69-5.37,3.48-9.5,7.63-12.94,2.87-2.39,5.08-5.17,5.35-9.39.16-2.35,2.18-4.52,3-6.88.72-2,1.94-4.61,1.21-6.12-2-4.14-.1-7.59,1-11.18a3.51,3.51,0,0,1,2.77-2c.94.11,2.08,1.42,2.49,2.47.73,1.84.82,3.92,1.44,5.81,1.94,5.93,8.86,8.61,13.77,4.74,3.35-2.63,7-6.17,8.15-10,2.32-7.4,3-15.3,4.36-23,.43-2.49,1.2-4.92-1.64-6.94-.81-.58-.9-3.62-.14-4.7,5.24-7.41,10.63-14.72,16.29-21.8,3.65-4.57,6.07-9.11,5-15.29a20.76,20.76,0,0,1,.86-9.16c1.43-4.81,3.45-9.41,1.92-14.61-.19-.63.55-1.54.86-2.32.68.59,1.91,1.14,2,1.77a102.06,102.06,0,0,1,.5,14.29c-.29,4.09-1.82,8.07-2.33,12.16-.15,1.28,1.4,4,1.91,3.92,1.91-.24,4.92-.94,5.36-2.2a75.86,75.86,0,0,0,3.93-16.27c.44-4.1,1.93-6.72,5.74-7.29,8.85-1.3,10.85-8.34,9.68-15.66-.54-3.42,0-7.11.6-10.57s2.14-6.47,2.88-9.77c3.12-14,5-27.93-4.37-40.63A6.27,6.27,0,0,1,814.23,511.45ZM691.57,700.67c-1.42,4.33-2.21,8.86-3.56,13.22-.58,1.88-1.89,3.53-2.84,5.23.89-9,1.75-17.64,2.63-26.53C692.64,694.34,693.18,695.78,691.57,700.67Zm.6-15.37c-4.93,0-9-3.56-9-7.77,0-4,4.81-8.14,9.36-8.1,3.89,0,8.81,4.36,8.89,7.81C701.57,681.53,697.17,685.34,692.17,685.3Zm40.41-96.75,0,0c-.45,1.66-1.76,3.81-1.15,4.88,4.17,7.37.13,13.79-2.43,20-3,7.3-7.11,14.18-11,21.07-3,5.31-6.46,10.37-9.79,15.5q-5.34,8.21-10.83,16.3c-.54.78-1.5,1.28-3.21,2.69,2.1-13.08.55-25.55,8.09-36.07,6.58-9.18,9.15-19.61,11.06-30.66,1.17-6.81,5.88-13,9-19.49,1.37-2.83,2.59-5.75,4.19-8.44.77-1.29,2.17-2.76,3.48-3,1-.17,2.53,1.33,3.4,2.41a17.58,17.58,0,0,1,3.22,5.38c.38,1.22-.24,3-.85,4.25a48.34,48.34,0,0,1-3.24,5.24l.11-.14h0v0c3.79-3.21,7.49-6.58,13.11-3.84,3.66,1.78,4.8,4.75,4.21,8.46s-3.06,5.66-6.72,6.09a13.56,13.56,0,0,1-2.44.08C735.39,599,732.49,595.24,732.58,588.55Zm24.68,22.12c-3,6-5.08,12-4.53,18.85.19,2.47-1.24,5.32-2.58,7.61-2.85,4.85-5.79,9.6-5.6,15.47a33.68,33.68,0,0,1-4.23,18,10.86,10.86,0,0,1-2.28,2.2c-.46-1.05-1.4-2.14-1.31-3.14a88.31,88.31,0,0,1,1.48-9.26c1.16-5.72,2.48-11.4,3.61-17.12,1.65-8.37,3.15-16.77,4.82-25.13a5.44,5.44,0,0,1,1.66-2.91c4.72-3.94,5.23-8.77,3.57-14.32-.38-1.29.18-2.86.35-4.86,2.3,3.64,4.35,6.17,5.53,9.06A7.47,7.47,0,0,1,757.26,610.67Zm4.93-169.54c-5.13-.27-8.37-3.43-8.2-8s3.89-7.49,8.89-7.3c4.76.17,8.51,3.79,8.28,8S766.9,441.37,762.19,441.13ZM796.37,565.7a9.38,9.38,0,0,0-6.49,6.78c-.22.77-1.17,1.34-1.78,2-.69-.78-1.71-1.46-2-2.38-4.85-13.78-9.74-27.56-14.28-41.45-1.13-3.47-1-7.34-1.37-9.84-.19-8.45,3.36-14,8.32-18.74,2.26-2.17,4.46-1.71,5.85,1.12,1.88,3.8,3.46,7.75,5.42,11.51,2.41,4.61,5.1,9.08,7.61,13.65a7.39,7.39,0,0,1,1,2.82c.79,9.06,1.46,18.13,2.28,27.18C801.2,562,799.73,564.56,796.37,565.7Z" transform="translate(-599.17 -386.14)"/><path class="cls-2" d="M732.56,588.57l-.1.09a48.34,48.34,0,0,0,3.24-5.24c.61-1.29,1.23-3,.85-4.25a17.58,17.58,0,0,0-3.22-5.38c-.87-1.08-2.41-2.58-3.4-2.41-1.31.23-2.71,1.7-3.48,3-1.6,2.69-2.82,5.61-4.19,8.44-3.12,6.48-7.83,12.68-9,19.49-1.91,11.05-4.48,21.48-11.06,30.66-7.54,10.52-6,23-8.09,36.07,1.71-1.41,2.67-1.91,3.21-2.69q5.49-8.1,10.83-16.3c3.33-5.13,6.77-10.19,9.79-15.5,3.93-6.89,8-13.77,11-21.07,2.56-6.23,6.6-12.65,2.43-20C730.8,592.38,732.11,590.23,732.56,588.57Z" transform="translate(-599.17 -386.14)"/><path class="cls-2" d="M798.58,531.17a7.39,7.39,0,0,0-1-2.82c-2.51-4.57-5.2-9-7.61-13.65-2-3.76-3.54-7.71-5.42-11.51-1.39-2.83-3.59-3.29-5.85-1.12-5,4.77-8.51,10.29-8.32,18.74.32,2.5.24,6.37,1.37,9.84,4.54,13.89,9.43,27.67,14.28,41.45.32.92,1.34,1.6,2,2.38.61-.66,1.56-1.23,1.78-2a9.38,9.38,0,0,1,6.49-6.78c3.36-1.14,4.83-3.67,4.49-7.35C800,549.3,799.37,540.23,798.58,531.17Z" transform="translate(-599.17 -386.14)"/><path class="cls-2" d="M752.22,596.09c-.17,2-.73,3.57-.35,4.86,1.66,5.55,1.15,10.38-3.57,14.32a5.44,5.44,0,0,0-1.66,2.91c-1.67,8.36-3.17,16.76-4.82,25.13-1.13,5.72-2.45,11.4-3.61,17.12a88.31,88.31,0,0,0-1.48,9.26c-.09,1,.85,2.09,1.31,3.14a10.86,10.86,0,0,0,2.28-2.2,33.68,33.68,0,0,0,4.23-18c-.19-5.87,2.75-10.62,5.6-15.47,1.34-2.29,2.77-5.14,2.58-7.61-.55-6.9,1.54-12.89,4.53-18.85a7.47,7.47,0,0,0,.49-5.52C756.57,602.26,754.52,599.73,752.22,596.09Z" transform="translate(-599.17 -386.14)"/><path class="cls-3" d="M692.57,669.43c-4.55,0-9.34,4.1-9.36,8.1,0,4.21,4,7.74,9,7.77s9.4-3.77,9.29-8.06C701.38,673.79,696.46,669.47,692.57,669.43Z" transform="translate(-599.17 -386.14)"/><path class="cls-3" d="M740.74,599.34a13.56,13.56,0,0,0,2.44-.08c3.66-.43,6.12-2.4,6.72-6.09s-.55-6.68-4.21-8.46c-5.62-2.74-9.32.63-13.11,3.84C732.49,595.24,735.4,599,740.74,599.34Z" transform="translate(-599.17 -386.14)"/><path class="cls-2" d="M732.56,588.57l0,0v0A.08.08,0,0,1,732.56,588.57Z" transform="translate(-599.17 -386.14)"/><path class="cls-2" d="M732.57,588.52l-.11.14.11-.13s0,0,0,0h0a.08.08,0,0,0,0,0Z" transform="translate(-599.17 -386.14)"/><path class="cls-2" d="M732.57,588.53l-.11.13.1-.09S732.57,588.54,732.57,588.53Z" transform="translate(-599.17 -386.14)"/><path class="cls-3" d="M762.88,425.84c-5-.19-8.72,2.87-8.89,7.3s3.07,7.72,8.2,8c4.71.24,8.73-3,9-7.3S767.64,426,762.88,425.84Z" transform="translate(-599.17 -386.14)"/><path class="cls-2" d="M687.8,692.59c-.88,8.89-1.74,17.57-2.63,26.53,1-1.7,2.26-3.35,2.84-5.23,1.35-4.36,2.14-8.89,3.56-13.22C693.18,695.78,692.64,694.34,687.8,692.59Z" transform="translate(-599.17 -386.14)"/></svg>